<svg height="480pt" viewBox="0 0 480 480.00249" width="480pt" xmlns="http://www.w3.org/2000/svg"><path d="m424.003906 464c-13.257812 0-24-10.746094-24-24 0-4.417969-3.582031-8-8-8-4.417968 0-8 3.582031-8 8 0 13.253906-10.746094 24-24 24-13.257812 0-24-10.746094-24-24 0-4.417969-3.582031-8-8-8-4.417968 0-8 3.582031-8 8 0 13.253906-10.746094 24-24 24-13.257812 0-24-10.746094-24-24 0-4.417969-3.582031-8-8-8-4.417968 0-8 3.582031-8 8 0 13.253906-10.746094 24-24 24-13.257812 0-24-10.746094-24-24 0-4.417969-3.582031-8-8-8-4.417968 0-8 3.582031-8 8 0 13.253906-10.746094 24-24 24-13.257812 0-24-10.746094-24-24 0-4.417969-3.582031-8-8-8-4.417968 0-8 3.582031-8 8 0 13.253906-10.746094 24-24 24-13.257812 0-24-10.746094-24-24 0-4.417969-3.582031-8-8-8-4.417968 0-8 3.582031-8 8 0 13.253906-10.746094 24-24 24-13.257812 0-24-10.746094-24-24 0-4.417969-3.582031-8-8-8-4.417968 0-7.99999975 3.582031-7.99999975 8-.05078125 17.253906 10.99999975 32.582031 27.38671875 37.988281 16.382813 5.40625 34.386719-.339843 44.613281-14.234375 7.460938 10.210938 19.351563 16.25 32 16.25 12.648438 0 24.535156-6.039062 32-16.25 7.460938 10.210938 19.351563 16.25 32 16.25 12.648438 0 24.535156-6.039062 32-16.25 7.460938 10.210938 19.351563 16.25 32 16.25 12.648438 0 24.535156-6.039062 32-16.25 7.460938 10.210938 19.351563 16.25 32 16.25 12.648438 0 24.535156-6.039062 32-16.25 7.460938 10.210938 19.351563 16.25 32 16.25 12.648438 0 24.535156-6.039062 32-16.25 7.484375 10.183594 19.359375 16.210938 32 16.246094 4.417969 0 8-3.582031 8-8s-3.582031-8-8-8zm0 0"/><path d="m296.003906 408c0 4.417969 3.582032 8 8 8 9.222656-.027344 17.980469-4.0625 24-11.054688 5.996094 7.015626 14.765625 11.054688 24 11.054688 9.230469 0 18-4.039062 24-11.054688 6.015625 6.992188 14.773438 11.027344 24 11.054688 4.417969 0 8-3.582031 8-8s-3.582031-8-8-8c-8.835937 0-16-7.164062-16-16 0-4.417969-3.582031-8-8-8-4.417968 0-8 3.582031-8 8 0 8.835938-7.164062 16-16 16-8.835937 0-16-7.164062-16-16 0-4.417969-3.582031-8-8-8-4.417968 0-8 3.582031-8 8 0 8.835938-7.164062 16-16 16-4.417968 0-8 3.582031-8 8zm0 0"/><path d="m472.003906 376c-4.417968 0-8 3.582031-8 8 0 8.835938-7.164062 16-16 16-4.417968 0-8 3.582031-8 8s3.582032 8 8 8c17.671875 0 32-14.328125 32-32 0-4.417969-3.582031-8-8-8zm0 0"/><path d="m224.003906 384c0 8.835938-7.164062 16-16 16-4.417968 0-8 3.582031-8 8s3.582032 8 8 8c9.222656-.027344 17.980469-4.0625 24-11.054688 8.710938 10.105469 22.796875 13.714844 35.296875 9.039063 12.5-4.671875 20.761719-16.640625 20.703125-29.984375 0-4.417969-3.582031-8-8-8-4.417968 0-8 3.582031-8 8 0 8.835938-7.164062 16-16 16-8.835937 0-16-7.164062-16-16 0-4.417969-3.582031-8-8-8-4.417968 0-8 3.582031-8 8zm0 0"/><path d="m64.003906 416c9.222656-.027344 17.980469-4.0625 24-11.054688 5.996094 7.015626 14.765625 11.054688 24 11.054688 9.230469 0 18-4.039062 24-11.054688 8.710938 10.105469 22.796875 13.714844 35.296875 9.039063 12.5-4.671875 20.761719-16.640625 20.703125-29.984375 0-4.417969-3.582031-8-8-8-4.417968 0-8 3.582031-8 8 0 8.835938-7.164062 16-16 16-8.835937 0-16-7.164062-16-16 0-4.417969-3.582031-8-8-8-4.417968 0-8 3.582031-8 8 0 8.835938-7.164062 16-16 16-8.835937 0-16-7.164062-16-16 0-4.417969-3.582031-8-8-8-4.417968 0-8 3.582031-8 8 0 8.835938-7.164062 16-16 16-4.417968 0-8 3.582031-8 8s3.582032 8 8 8zm0 0"/><path d="m355.257812 295.6875c-12.1875-35.609375-45.617187-59.578125-83.253906-59.6875-25.144531-.046875-49.089844 10.738281-65.714844 29.601562-3.511718-1.007812-7.269531-1.921874-11.367187-2.761718-8.851563-1.859375-17.871094-2.808594-26.917969-2.839844-3.199218 0-6.632812.191406-10.160156.488281-3.84375-13.875-5.808594-28.203125-5.839844-42.601562-.066406-33.734375 10.601563-66.613281 30.453125-93.886719l157.457031 90.9375c2.429688 1.402344 5.417969 1.433594 7.875.074219 2.457032-1.355469 4.023438-3.902344 4.125-6.707031 1.347657-34.332032-11.1875-67.757813-34.769531-92.742188s-56.230469-39.421875-90.582031-40.058594l8.800781-5.089844 71.296875-41.15625c2.429688-1.402343 3.945313-3.976562 4-6.78125.050782-2.804687-1.371094-5.433593-3.746094-6.925781-24.664062-15.5234372-54.832031-19.644531-82.757812-11.304687-27.925781 8.34375-50.890625 28.332031-63 54.84375-10.617188-22.628906-30.449219-39.601563-54.441406-46.605469-23.992188-7-49.839844-3.355469-70.960938 10.011719-2.375 1.492187-3.796875 4.117187-3.746094 6.921875.050782 2.804687 1.566407 5.378906 3.996094 6.78125l68.144532 39.34375c-28.613282.804687-55.710938 13.023437-75.261719 33.929687-19.546875 20.90625-29.921875 48.765625-28.8046878 77.367188.1054688 2.804687 1.6679688 5.351562 4.1249998 6.707031 2.457031 1.359375 5.445313 1.332031 7.875-.074219l97.351563-56.207031c-34.621094 44.300781-46.058594 102.449219-30.800782 156.566406-29.613281 25.6875-46.628906 62.964844-46.628906 102.167969 0 .960938.0625 1.894531.125 2.832031l.074219 1.398438c.125 4.328125 3.671875 7.769531 8 7.769531h.246094c4.414062-.128906 7.886719-3.8125 7.761719-8.222656 0-.6875-.0625-1.378906-.113282-2.058594-.046875-.679688-.09375-1.132812-.09375-1.71875-.019531-32.28125 13.042969-63.195312 36.207032-85.679688 4.054687 10.441407 9.097656 20.472657 15.054687 29.960938 2.359375 3.738281 7.304687 4.855469 11.042969 2.496094 3.734375-2.359375 4.851562-7.304688 2.496094-11.042969-5.519532-8.773437-10.175782-18.0625-13.898438-27.734375h13.097656c4.417969 0 8-3.582031 8-8s-3.582031-8-8-8h-18.351562c-2.109375-7.820312-3.621094-15.785156-4.53125-23.832031h21.21875c4.417968 0 8-3.582031 8-8s-3.582032-8-8-8h-22.257813c0-.726563-.078125-1.441407-.078125-2.167969.003906-7.359375.503906-14.710938 1.503906-22h14.496094c4.417969 0 8-3.582031 8-8s-3.582031-8-8-8h-11.394531c9.445313-39.054688 33.242187-73.121094 66.664063-95.425781.265624 0 .53125.097656.800781.097656.738281-.007813 1.472656-.113281 2.183593-.320313l6.3125 3.648438c-49.457031 69.628906-41.871093 164.699219 18.007813 225.601562 3.105469 3.078126 8.109375 3.089844 11.234375.03125 3.121094-3.0625 3.207031-8.066406.191406-11.234374-15.21875-15.515626-27.125-33.964844-34.992187-54.222657 1.6875-.078125 3.398437-.175781 5-.175781 7.96875.023438 15.917969.859375 23.71875 2.488281 4.984375.988281 9.898437 2.289063 14.71875 3.886719 3.222656 1.09375 6.777343.03125 8.875-2.648438 16.667969-21.414062 43.976562-31.613281 70.601562-26.371093 26.625 5.242187 48.027344 25.035156 55.332031 51.171875.796876 2.835937 3.085938 5.007812 5.960938 5.648437 40.074219 9.164063 68.566406 44.714844 68.785156 85.824219 0 .648438-.050781 1.28125-.097656 1.910156l-.09375 1.761719c-.1875 4.417969 3.246094 8.144531 7.664062 8.328125h.335938c4.292969.003906 7.820312-3.382812 8-7.671875l.070312-1.328125c.070313-.992188.136719-1.992188.136719-3-.261719-46.84375-31.613281-87.816406-76.761719-100.3125zm-75.199218-189.222656c31.742187 18.292968 52.5 50.992187 55.542968 87.503906l-38-21.96875 8-13.855469c1.453126-2.476562 1.464844-5.542969.035157-8.03125-1.429688-2.488281-4.082031-4.023437-6.953125-4.015625-2.871094.007813-5.519532 1.550782-6.9375 4.046875l-8 13.855469-20.800782-12 8-13.855469c1.453126-2.476562 1.46875-5.542969.035157-8.03125-1.429688-2.488281-4.082031-4.023437-6.953125-4.015625-2.871094.007813-5.519532 1.550782-6.9375 4.046875l-8 13.855469-20.800782-12 8-13.855469c1.453126-2.476562 1.46875-5.542969.039063-8.03125s-4.085937-4.023437-6.957031-4.015625c-2.871094.007813-5.515625 1.550782-6.9375 4.046875l-8 13.855469-36-20.800781 10.847656-6.261719c30.230469-9.886719 63.242188-6.421875 90.761719 9.527344zm-69.511719-79.050782c23.050781-13.332031 51.019531-15.085937 75.550781-4.734374l-24.894531 14.398437-5.320313-9.199219c-2.222656-3.792968-7.09375-5.078125-10.902343-2.882812-3.808594 2.199218-5.128907 7.0625-2.953125 10.882812l5.320312 9.210938-13.03125 7.519531-5.3125-9.210937c-1.421875-2.492188-4.066406-4.039063-6.9375-4.042969-2.871094-.007813-5.527344 1.523437-6.957031 4.015625-1.429687 2.488281-1.414063 5.550781.039063 8.027344l5.308593 9.210937-13.03125 7.527344-5.3125-9.207031c-2.207031-3.832032-7.101562-5.144532-10.929687-2.933594-3.828125 2.210937-5.140625 7.101562-2.933594 10.933594l5.3125 9.207031-11.007812 6.351562c-4.511719 1.550781-8.929688 3.351563-13.238282 5.390625 0-.167968-.058594-.328125-.074218-.496094 4.050781-25.183593 19.21875-47.207031 41.304687-59.96875zm-92.503906 7.203126c18.640625 10.734374 31.429687 29.316406 34.808593 50.558593l-32-18.480469 6.09375-10.550781c1.453126-2.476562 1.46875-5.542969.035157-8.03125-1.429688-2.488281-4.082031-4.023437-6.953125-4.015625-2.871094.007813-5.519532 1.550782-6.9375 4.046875l-6.101563 10.550781-9.082031-5.238281 6.097656-10.5625c2.171875-3.820312.851563-8.683593-2.957031-10.878906-3.808594-2.199219-8.675781-.914063-10.898437 2.878906l-6.144532 10.5625-27.160156-15.695312c20.089844-7.699219 42.578125-5.910157 61.199219 4.863281zm-56.441407 69.078124c25.042969-14.492187 55.484376-16.222656 82.007813-4.664062l-27.894531 16.167969-5.929688-10.277344c-2.207031-3.832031-7.101562-5.144531-10.929687-2.933594-3.828125 2.207031-5.140625 7.101563-2.933594 10.933594l5.9375 10.277344-14.816406 8.511719-5.929688-10.277344c-2.207031-3.828125-7.101562-5.144532-10.929687-2.933594s-5.140625 7.105469-2.933594 10.933594l5.9375 10.277344-14.785156 8.554687-5.9375-10.273437c-2.207032-3.828126-7.101563-5.140626-10.929688-2.933594-3.828125 2.210937-5.140625 7.105468-2.933594 10.933594l5.9375 10.273437-27.921874 16.117187c3.238281-28.738281 19.933593-54.234374 44.984374-68.6875zm0 0"/><path d="m368.003906 72c8.835938 0 16 7.164062 16 16 0 4.417969 3.582032 8 8 8 4.417969 0 8-3.582031 8-8 0-8.835938 7.164063-16 16-16 4.417969 0 8-3.582031 8-8s-3.582031-8-8-8c-9.191406-.003906-17.9375 3.953125-24 10.855469-6.066406-6.902344-14.8125-10.859375-24-10.855469-4.417968 0-8 3.582031-8 8s3.582032 8 8 8zm0 0"/><path d="m448.003906 152c4.417969 0 8-3.582031 8-8 0-8.835938 7.164063-16 16-16 4.417969 0 8-3.582031 8-8s-3.582031-8-8-8c-9.191406-.003906-17.9375 3.953125-24 10.855469-6.066406-6.902344-14.8125-10.859375-24-10.855469-4.417968 0-8 3.582031-8 8s3.582032 8 8 8c8.835938 0 16 7.164062 16 16 0 4.417969 3.582032 8 8 8zm0 0"/><path d="m416.003906 16c8.835938 0 16 7.164062 16 16 0 4.417969 3.582032 8 8 8 4.417969 0 8-3.582031 8-8 0-8.835938 7.164063-16 16-16 4.417969 0 8-3.582031 8-8s-3.582031-8-8-8c-9.191406-.00390625-17.9375 3.953125-24 10.855469-6.066406-6.902344-14.8125-10.85937525-24-10.855469-4.417968 0-8 3.582031-8 8s3.582032 8 8 8zm0 0"/><path d="m240.003906 304.007812c0 4.417969-3.582031 8-8 8-4.417968 0-8-3.582031-8-8 0-4.417968 3.582032-8 8-8 4.417969 0 8 3.582032 8 8zm0 0"/><path d="m312.003906 320.007812c0 4.417969-3.582031 8-8 8-4.417968 0-8-3.582031-8-8 0-4.417968 3.582032-8 8-8 4.417969 0 8 3.582032 8 8zm0 0"/></svg>